PathFileType	4	(X/Y/Z)	64_2_10_p0_0-300_filt_butterworth.trc
DataRate	CameraRate	NumFrames	NumMarkers	Units	OrigDataRate	OrigDataStartFrame	OrigNumFrames
59.0	59.0	6	27	m	59.0	0	300
Frame#	Time	RHip			RKnee			RAnkle			RBigToe			RSmallToe			RHeel			LHip			LKnee			LAnkle			LBigToe			LSmallToe			LHeel			Neck			Head			Nose			RShoulder			RElbow			RWrist			RThumb			RIndex			RPinky			LShoulder			LElbow			LWrist			LThumb			LIndex			LPinky			
		X1	Y1	Z1	X2	Y2	Z2	X3	Y3	Z3	X4	Y4	Z4	X5	Y5	Z5	X6	Y6	Z6	X7	Y7	Z7	X8	Y8	Z8	X9	Y9	Z9	X10	Y10	Z10	X11	Y11	Z11	X12	Y12	Z12	X13	Y13	Z13	X14	Y14	Z14	X15	Y15	Z15	X16	Y16	Z16	X17	Y17	Z17	X18	Y18	Z18	X19	Y19	Z19	X20	Y20	Z20	X21	Y21	Z21	X22	Y22	Z22	X23	Y23	Z23	X24	Y24	Z24	X25	Y25	Z25	X26	Y26	Z26	X27	Y27	Z27	
0	0.0	0.3103937847204853	0.2901286781387494	1.0733134137289335	0.29099337650208473	-0.12788751528782538	1.0801256852378636	0.25775402953814897	-0.5708122579599787	1.1279371499444	0.2720123900713027	-0.5978731243185051	0.9608940398565331	0.335198197920906	-0.5891092813616976	0.9828364455110191	0.20181697796192788	-0.6515617536453547	1.2060010821383724	0.10623362169658598	0.3009333908367217	1.0421710897275145	0.09024853574700498	-0.12163832352982179	1.0207307813203756	0.07817956882302697	-0.5595448162177977	1.0693290970149778	0.1464582597788366	-0.5172884801239167	0.8397473413982348	0.06670456155263815	-0.5554633407862783	0.9033570940323596	0.06434758162222623	-0.6383976251491524	1.1525828475088093	0.24667150404949137	0.8222226245201631	0.9968233525780645	0.27821059118659297	1.0524430610595854	0.9182339956501091	0.27457016192511474	0.9390357210439031	0.8538554546606729	0.3915902313207289	0.7414777085436843	1.0272506515045206	0.5414741815523304	0.5632711995109038	1.230797489280182	0.4072467681204942	0.3837099881614357	1.114803649452483	0.31709020669412125	0.41075125401833495	1.0556630231315605	0.315366730077469	0.3811136751105618	1.0325636558519142	0.34017163206355416	0.3567321626570434	1.0369676269679968	0.09626895448431479	0.7501179055225549	0.9915003105211054	0.0012630967823881994	0.5323876328102835	1.0834942142541233	0.11149656208429293	0.5773894547714669	0.869377259601478	0.18541510653626764	0.6206282654646222	0.7768673795947059	0.18309577357864806	0.628052039708944	0.7610563598779274	0.17430287260891913	0.5908520034996205	0.7709394886362879	
1	0.0169491525423728	0.31063378579110507	0.2886862160056702	1.071881373715494	0.29143382697311143	-0.13001899435686148	1.0786899927869584	0.25836000677665594	-0.5695422442882502	1.1245744328435654	0.27868998572417614	-0.5897308709010833	0.9463147992369167	0.335511549658802	-0.585893690082948	0.9776361511552333	0.20222736727729615	-0.6516218307835544	1.20494108331774	0.10643386678549209	0.2987010692515335	1.0412362371422064	0.089981328911824	-0.124095934301852	1.0214780863678585	0.07795098282207552	-0.5593146257356015	1.0700762379794178	0.1450211979336186	-0.5223966389906903	0.8446418946359289	0.06666776631981443	-0.5554238955508243	0.9036135079456783	0.0643985091488041	-0.6378050398767561	1.1540621140289595	0.24101125735500528	0.822235767060382	1.0016243025184162	0.27837153213007576	1.052494303167628	0.9180923193549694	0.27406672407441907	0.9393988323277167	0.8508164844604966	0.3891804499126742	0.7419120131798354	1.021205658164305	0.539171016764351	0.5629927023420206	1.2197567136497165	0.4072287099880686	0.38290385220886575	1.116541065371759	0.31853171993177903	0.41121557220724686	1.0512622838918655	0.31580485679767	0.38179444288394276	1.0358343401481866	0.3423896989982232	0.35564058497685697	1.0362053232597372	0.09674876165191083	0.7513476960655479	0.9904045560932702	0.001864014283185245	0.5364937401069663	1.0759901003280667	0.10845650518138888	0.5775013482621991	0.8671176882031552	0.1847238391709313	0.6171369861361105	0.7735791312204741	0.17748017840626362	0.627603315501678	0.7506528094719107	0.17122510567109256	0.5901668831225841	0.7673475632738731	
2	0.0338983050847457	0.310802339768592	0.2874899709384381	1.070499744988695	0.29167908940209436	-0.1317207462780835	1.077258987328939	0.2588670883226535	-0.5687793739776191	1.1219388515493094	0.2819283906216088	-0.5856926397240662	0.9388064161794226	0.33573088183254407	-0.5843040937460608	0.9745428520238558	0.2025398275777429	-0.6518690498576721	1.2042441480598547	0.10646190442069026	0.2968539231797214	1.040002915432465	0.08962192492722329	-0.1261858722361746	1.0220887325286707	0.0777868624311097	-0.5592159608011553	1.070587191983648	0.14440852791609082	-0.5257854631258762	0.8478236353955944	0.0666666131636954	-0.5553765008947573	0.9037222401611001	0.06449014049746993	-0.6375033900477413	1.1548729515882794	0.23726584927387714	0.8225077628220097	1.0042390628870352	0.2769846405481014	1.0521331883615375	0.918207645568855	0.2729240379805067	0.9395119483765559	0.8491331950125686	0.3873756332693305	0.7425240592374696	1.0165231077052523	0.5375098120356333	0.5632879962626114	1.2097815501382667	0.4072841670234545	0.38311802018054975	1.1164200016436707	0.31948187330514566	0.41131860162069317	1.0476858144590608	0.3158428581160637	0.3831595098382374	1.032454047650894	0.3445180027975718	0.3557041591436861	1.032482092930087	0.09706383518652761	0.7519971589639115	0.9897916763937035	0.002361327789675838	0.538958174158311	1.0712767421847733	0.10580023321249747	0.5775317039208184	0.8659049833774095	0.18356982537877328	0.6144746259619027	0.7719759339003869	0.17316553761267736	0.626882091015218	0.7423178739512672	0.16793212901571816	0.5898213703752275	0.7648147910658438	
3	0.0508474576271186	0.3109027289952794	0.2865259904765196	1.0691610094655317	0.29174716581753	-0.1330269843623939	1.0758300355081165	0.25928266542631334	-0.5684652114569467	1.1199600194696604	0.2824945245918405	-0.5848333983289216	0.9368052302068294	0.3358749935463615	-0.5839009285891695	0.9730219331999321	0.20276510248757423	-0.6522743786061654	1.2038663442358417	0.10633465458829844	0.2953634598344619	1.0385084097735455	0.08918136673047872	-0.12792960897872724	1.0225616548569962	0.0776808892590465	-0.5592267495410278	1.0708745268531006	0.14442403133164283	-0.5277739349869082	0.849632306137715	0.06668721931816078	-0.5553273818265089	0.9037212631840366	0.06461738147949829	-0.6374542426345893	1.1550744436177165	0.23501634550340525	0.82301497196105	1.00512031245605	0.2744096892091862	1.0514693595865046	0.9185066682882214	0.27130485770658674	0.9394638895468783	0.8485858797079617	0.3860757304633676	0.7432686507748539	1.012910104297854	0.5363463212373553	0.5640225241891054	1.200883617826905	0.4073877915488104	0.38409805964034854	1.1148883253308608	0.3199464851308418	0.411144646660963	1.0448542133471663	0.3155146641650709	0.38500630979641887	1.0242793522621216	0.34640877203923676	0.3565978750018597	1.026862021349887	0.09713838071174477	0.7522215324128395	0.9896479957258362	0.002725203282795122	0.5401091356285848	1.0688893873957839	0.10348595623155185	0.5774727236347177	0.8654880092713917	0.1821017040486358	0.6125007052286172	0.771650320880813	0.16995506801555804	0.6259773725374544	0.7357063622304294	0.16462318646163498	0.5897578944749235	0.7627448179762699	
4	0.0677966101694915	0.3109382358135006	0.285780322159381	1.067857649063	0.291656058247915	-0.1339719219206955	1.0744005039688018	0.2596141293378073	-0.5685413211550949	1.1185675500126462	0.28115530746311085	-0.586228114257118	0.9387475808419151	0.3359626839044838	-0.5842446308504066	0.9725387797665078	0.20291393563109622	-0.6528087847674923	1.2037637397168257	0.10606903727443462	0.2942011864289307	1.0367900053407024	0.08867069725886619	-0.1293486161754473	1.0228957884070191	0.07762674491480287	-0.5593249200817892	1.0709508104132077	0.1448714897856642	-0.5286810370312208	0.8504076493227751	0.06671570201709026	-0.555282763354511	0.9036485495198995	0.06477513790616377	-0.6376191646097819	1.1547256735482176	0.23384381174088797	0.8237337546335063	1.0047207299975895	0.2710064508818464	1.0506124597877207	0.9189160815095235	0.26937193731586845	0.9393434761951409	0.8489548319377486	0.38518069056745546	0.7441005918502552	1.0100737521126026	0.5355362982406948	0.5650617290379314	1.1930745357967025	0.4075142358862949	0.3855895381521221	1.1123939034959707	0.31993137372548786	0.41077801173034506	1.0426880790702013	0.3148542050771123	0.38713227658146054	1.0131668278839547	0.34791423530085513	0.3579967223957063	1.0204091938899769	0.09689660385114193	0.7521760546075258	0.9899598383930993	0.002925806743478242	0.5402748251820542	1.0683632835326375	0.10147188429248521	0.5773166092912896	0.8656156300322526	0.18046811406936103	0.6110747442228723	0.7721948254081208	0.1676519864325744	0.6249781663562779	0.73047308322383	0.16149752182768212	0.5899188846390452	0.7605412899692211	
5	0.0847457627118644	0.31091214256558897	0.28523901352648817	1.0665821456980948	0.29142376872174586	-0.13458977226389102	1.0729677593553064	0.2598688713073073	-0.5689492675009254	1.1176910565862956	0.2786776590636604	-0.5889517550501269	0.9430698076074588	0.33601275201114106	-0.5848956367679093	0.9725587768066284	0.20299707063261496	-0.6534432360801097	1.2038924023739315	0.10568197246521674	0.29333861017630425	1.0348849873091903	0.08810095944966156	-0.13046436547227191	1.0230900682329236	0.07761811100729579	-0.5594884005500085	1.0708286104894018	0.1455546848835448	-0.5288257517162515	0.8504894074112588	0.0667381784943637	-0.5552488704871997	0.9035420716741004	0.06495831558874098	-0.6379597229458001	1.1538857248107308	0.2333293136836242	0.8246404709953818	1.0034929942837836	0.26713469833459913	1.0496721319103768	0.9193625792292175	0.26728803087156155	0.9392395286778008	0.8500203450930024	0.38459046265426466	0.7449746865219395	1.0077211553199898	0.5349354969168314	0.5662710537255171	1.1863659231287333	0.40763815235806766	0.38733802327972894	1.1093846032016432	0.31944235740570515	0.41030300123112634	1.041108010142186	0.3138954109846093	0.3893348440163335	1.0009730484184787	0.3488866211600646	0.3595756911695523	1.014187695921197	0.09626271022829896	0.7520159637431629	0.9907135286989248	0.0029333041526603473	0.539783443482984	1.0692336781668765	0.09971622744923095	0.5770555627779256	0.8660367098071435	0.1788176943297917	0.6100562632312848	0.7732019807286792	0.16605950968139555	0.6239734787595779	0.7262728458459015	0.15875437893269903	0.5902467700849641	0.7576078530087671	
